<?xml version="1.0" standalone="no"?>
<svg xmlns="http://www.w3.org/2000/svg" xmlns:xlink="http://www.w3.org/1999/xlink" id="networkNavigatorSvg" style="width: 100vw; height: 100vh;"><rect class="background" width="100%" height="100%" fill="#fff"/><g id="network"><g class="network"><g class="links"><path class="link" d="" style="fill: rgb(135, 187, 235);"/><path class="link" d="" style="fill: rgb(116, 169, 217);"/><path class="link" d="" style="fill: rgb(116, 169, 217);"/><path class="link" d="" style="fill: rgb(135, 187, 235);"/><path class="link" d="" style="fill: rgb(135, 187, 235);"/><path class="link" d="" style="fill: rgb(127, 180, 228);"/><path class="link" d="" style="fill: rgb(116, 169, 217);"/><path class="link" d="" style="fill: rgb(116, 169, 217);"/><path class="link" d="" style="fill: rgb(135, 187, 235);"/><path class="link" d="" style="fill: rgb(111, 165, 213);"/><path class="link" d="" style="fill: rgb(103, 157, 205);"/><path class="link" d="" style="fill: rgb(124, 177, 225);"/><path class="link" d="" style="fill: rgb(141, 192, 240);"/><path class="link" d="" style="fill: rgb(111, 165, 213);"/><path class="link" d="" style="fill: rgb(124, 177, 225);"/><path class="link" d="" style="fill: rgb(127, 180, 228);"/><path class="link" d="" style="fill: rgb(131, 183, 231);"/><path class="link" d="" style="fill: rgb(135, 187, 235);"/><path class="link" d="" style="fill: rgb(121, 174, 222);"/><path class="link" d="" style="fill: rgb(127, 180, 228);"/><path class="link" d="" style="fill: rgb(116, 169, 217);"/><path class="link" d="" style="fill: rgb(135, 187, 235);"/><path class="link" d="" style="fill: rgb(121, 174, 222);"/><path class="link" d="" style="fill: rgb(141, 192, 240);"/><path class="link" d="" style="fill: rgb(135, 187, 235);"/><path class="link" d="" style="fill: rgb(103, 157, 205);"/><path class="link" d="" style="fill: rgb(127, 180, 228);"/><path class="link" d="" style="fill: rgb(127, 180, 228);"/><path class="link" d="" style="fill: rgb(127, 180, 228);"/><path class="link" d="" style="fill: rgb(121, 174, 222);"/><path class="link" d="" style="fill: rgb(131, 183, 231);"/><path class="link" d="" style="fill: rgb(135, 187, 235);"/><path class="link" d="" style="fill: rgb(127, 180, 228);"/><path class="link" d="" style="fill: rgb(127, 180, 228);"/><path class="link" d="" style="fill: rgb(90, 145, 193);"/><path class="link" d="" style="fill: rgb(70, 128, 176);"/><path class="link" d="" style="fill: rgb(135, 187, 235);"/><path class="link" d="" style="fill: rgb(116, 169, 217);"/><path class="link" d="" style="fill: rgb(135, 187, 235);"/><path class="link" d="" style="fill: rgb(131, 183, 231);"/><path class="link" d="" style="fill: rgb(135, 187, 235);"/><path class="link" d="" style="fill: rgb(127, 180, 228);"/><path class="link" d="" style="fill: rgb(135, 187, 235);"/><path class="link" d="" style="fill: rgb(72, 130, 178);"/><path class="link" d="" style="fill: rgb(121, 174, 222);"/><path class="link" d="" style="fill: rgb(141, 192, 240);"/><path class="link" d="" style="fill: rgb(116, 169, 217);"/><path class="link" d="" style="fill: rgb(127, 180, 228);"/><path class="link" d="" style="fill: rgb(107, 161, 209);"/><path class="link" d="" style="fill: rgb(113, 167, 215);"/><path class="link" d="" style="fill: rgb(87, 143, 191);"/><path class="link" d="" style="fill: rgb(141, 192, 240);"/><path class="link" d="" style="fill: rgb(135, 187, 235);"/><path class="link" d="" style="fill: rgb(131, 183, 231);"/><path class="link" d="" style="fill: rgb(135, 187, 235);"/><path class="link" d="" style="fill: rgb(127, 180, 228);"/><path class="link" d="" style="fill: rgb(135, 187, 235);"/><path class="link" d="" style="fill: rgb(127, 180, 228);"/><path class="link" d="" style="fill: rgb(94, 149, 197);"/><path class="link" d="" style="fill: rgb(80, 136, 184);"/><path class="link" d="" style="fill: rgb(135, 187, 235);"/><path class="link" d="" style="fill: rgb(141, 192, 240);"/><path class="link" d="" style="fill: rgb(127, 180, 228);"/><path class="link" d="" style="fill: rgb(72, 130, 178);"/><path class="link" d="" style="fill: rgb(96, 151, 199);"/><path class="link" d="" style="fill: rgb(76, 133, 181);"/><path class="link" d="" style="fill: rgb(84, 140, 188);"/><path class="link" d="" style="fill: rgb(59, 118, 166);"/><path class="link" d="" style="fill: rgb(131, 183, 231);"/><path class="link" d="" style="fill: rgb(124, 177, 225);"/><path class="link" d="" style="fill: rgb(111, 165, 213);"/><path class="link" d="" style="fill: rgb(107, 161, 209);"/><path class="link" d="" style="fill: rgb(99, 154, 202);"/><path class="link" d="" style="fill: rgb(99, 154, 202);"/><path class="link" d="" style="fill: rgb(79, 135, 183);"/><path class="link" d="" style="fill: rgb(101, 156, 204);"/><path class="link" d="M428.8224859714932,333.0512601856163L432.53582682294785,329.0705725506455Q381.0012247287701,276.0099929713208,343.46916074277783,221.99242619896626L338.8338113845001,224.84695079213492Q376.06549024277757,280.11515619408806,428.8224859714932,333.0512601856163Z" style="fill: rgb(116, 169, 217);"/><path class="link" d="M432.5746358255855,329.4443587785943L428.78367696885556,332.67747395766753Q562.7450910240135,496.08515568414714,745.7323137097599,585.3199853138997L748.0059145973892,580.8865733300722Q566.9360058444291,490.8276062607182,432.5746358255855,329.4443587785943Z" style="fill: rgb(121, 174, 222);"/><path class="link" d="M431.4955631013056,329.38861278883957L429.86274969313547,332.73321994742224Q583.4180809557387,411.5381212058666,749.9530219284889,403.7880655354686L749.8567500048375,400.0674193029091Q584.6020205825923,406.204963052625,431.4955631013056,329.38861278883957Z" style="fill: rgb(135, 187, 235);"/><path class="link" d="M428.9144849997638,331.6517243122073L432.4438277946773,330.4701084240545Q397.21736375528064,215.10480271012756,409.98800726477515,100.75203439127611L406.302068692747,100.23595928591067Q392.0271439788909,215.61206119845554,428.9144849997638,331.6517243122073Z" style="fill: rgb(135, 187, 235);"/><path class="link" d="M433.1419232130418,330.68557610312774L428.21638958139926,331.43625663313406Q446.0315626188732,474.4696965892725,535.6292589359803,585.8139390186634L539.5954971123231,582.7984195703602Q452.14225917695177,471.8894450900375,433.1419232130418,330.68557610312774Z" style="fill: rgb(121, 174, 222);"/><path class="link" d="M431.01228914737527,328.3594878289415L430.3460236470658,333.7623449073203Q643.9166718597425,364.46896313604304,850.4363452263833,306.4239798375114L849.0695862443506,301.1545639105492Q643.4500952864618,357.29924434790877,431.01228914737527,328.3594878289415Z" style="fill: rgb(116, 169, 217);"/><path class="link" d="M433.771067431386,328.55101100852164L427.5872453630551,333.57082172774017Q510.1557821363583,443.7015716237513,640.1024020340938,494.3606220417282L643.2758977215162,487.0553444870101Q515.9259278138712,436.0750086967584,433.771067431386,328.55101100852164Z" style="fill: rgb(87, 143, 191);"/><path class="link" d="M428.92506138746563,329.29194734624383L432.43325140697544,332.829885390018Q487.2392563921307,283.27039293167724,524.149362822419,216.80958045826875L519.9061745696514,214.19811415250345Q482.58519039114003,279.5913235836415,428.92506138746563,329.29194734624383Z" style="fill: rgb(121, 174, 222);"/><path class="link" d="M434.9879162607867,328.7315505909858L426.3703965336544,333.390282145276Q453.5212294120277,395.55948851110116,504.7649719144069,450.4170923319072L512.4100247848943,444.2918500877258Q462.3502282255508,389.644692462447,434.9879162607867,328.7315505909858Z" style="fill: rgb(66, 123, 171);"/><path class="link" d="M431.3295953642159,326.83226507028826L430.0287174302252,335.28956766597355Q503.1350791048249,351.7608475768588,593.6570783437625,340.2305606379726L593.060344193531,331.694627241555Q503.42165056269124,342.24995737177034,431.3295953642159,326.83226507028826Z" style="fill: rgb(80, 136, 184);"/><path class="link" d="M640.1034391484217,493.3820518681747L643.2748606071883,488.0339146605636Q466.357358628328,377.6534520533774,343.6402202512363,221.5565396666526L338.6627518760416,225.28283732444856Q461.06819362885295,383.6005635565008,640.1034391484217,493.3820518681747Z" style="fill: rgb(107, 161, 209);"/><path class="link" d="M642.0090274328153,493.17856599996895L641.3692723227947,488.23740052876934Q497.4232791545879,502.8876185368258,369.94681253630415,456.04294113562287L368.09374419929145,460.6679320062012Q496.64011802532707,509.48813945869904,642.0090274328153,493.17856599996895Z" style="fill: rgb(121, 174, 222);"/><path class="link" d="M640.6829576858875,489.1425132261028L642.6953420697225,492.2734533026355Q707.3127627102033,454.0357561106508,751.2614113488306,403.20169612922746L748.5483605844958,400.65378870915026Q704.3547670700219,450.4302052301562,640.6829576858875,489.1425132261028Z" style="fill: rgb(135, 187, 235);"/><path class="link" d="M643.9348668898002,492.72583038441394L639.4434328658098,488.69013614432436Q588.9371369084445,539.0978477197706,535.8553137643644,581.8510464906057L539.369442283939,586.761312098418Q593.5752690482614,544.2552315264772,643.9348668898002,492.72583038441394Z" style="fill: rgb(109, 163, 211);"/><path class="link" d="M639.9208617941633,487.35602744274706L643.4574379614467,494.05993908599123Q776.8648670118918,429.52988987675207,852.9084619006169,305.88815122452854L846.597469570117,301.69039252353207Q770.6890764905903,422.655465522758,639.9208617941633,487.35602744274706Z" style="fill: rgb(91, 147, 195);"/><path class="link" d="M638.0264554365191,493.5771527906425L645.3518443190909,487.8388137380958Q556.279307048894,364.3677972688746,526.6238008479323,214.78000146582474L517.4317365441381,216.22769314494747Q546.1654860432734,368.7653830331312,638.0264554365191,493.5771527906425Z" style="fill: rgb(71, 129, 177);"/><path class="link" d="M640.5238138254376,495.74861647079024L642.8544859301724,485.66735005794806Q579.3623205430514,464.890848129511,510.58311867913534,442.5812657106609L506.5918780201659,452.1276767089721Q575.9067813666617,475.4998610906516,640.5238138254376,495.74861647079024Z" style="fill: rgb(59, 118, 166);"/><path class="link" d="M638.8471160161295,491.96812807518637L644.5311837394805,489.4478384535519Q618.4533925824741,420.7699758898314,596.4011657608198,335.32338186369225L590.3162567764737,336.60180601583534Q611.6246212684434,422.9027535719918,638.8471160161295,491.96812807518637Z" style="fill: rgb(107, 161, 209);"/><path class="link" d="M520.0456094651997,214.9636938900659L524.0099279268707,216.0440007207063Q550.6759110210514,130.11496535749455,541.6369507524607,52.15186292215791L537.5398516486528,52.462769093611435Q545.4501218901908,129.5526484887256,520.0456094651997,214.9636938900659Z" style="fill: rgb(131, 183, 231);"/><path class="link" d="M522.6255554129366,218.15928410988153L521.4299819791338,212.84841050089068Q426.88070224395653,230.17812594220806,341.57158590126255,220.73041169536782L340.7313862260154,226.10896529573336Q427.1730113652159,236.85736393634986,522.6255554129366,218.15928410988153Z" style="fill: rgb(116, 169, 217);"/><path class="link" d="M520.5398589184226,217.501902659306L523.5156784736478,213.5057919514662Q457.5330968349528,159.971329489737,410.17944918077626,99.05619582149873L406.1106267767459,101.93179785568805Q453.2073231760118,164.2547096936552,520.5398589184226,217.501902659306Z" style="fill: rgb(121, 174, 222);"/><path class="link" d="M523.6870507094093,212.41073472452535L520.3684866826611,218.59695988624685Q674.8700809949753,307.17737425290693,849.6498754879074,307.2978235180373L849.8560559828265,300.2807202300233Q677.1490138705445,298.71772500350414,523.6870507094093,212.41073472452535Z" style="fill: rgb(97, 152, 200);"/><path class="link" d="M523.9163187815201,216.66615371773472L520.1392186105503,214.3415408930375Q478.36046475051114,276.25165057406457,429.11773791504,329.48625769239294L432.2405748794011,332.63557504386887Q482.58519039114003,279.5913235836415,523.9163187815201,216.66615371773472Z" style="fill: rgb(127, 180, 228);"/><path class="link" d="M527.4347205749267,214.65228676514303L516.6208168171437,216.35540784562917Q534.5460062703506,373.8176435792765,637.3802129651375,494.0833864487307L645.9980867904725,487.3325800800076Q546.1654860432734,368.7653830331312,527.4347205749267,214.65228676514303Z" style="fill: rgb(52, 111, 159);"/><path class="link" d="M527.0521371729951,214.7286141889606L517.0034002190753,216.2790804218116Q528.1552191311966,329.56374962205444,503.67439877158716,446.048057219879L513.5005979277141,448.660885199754Q539.730130543524,330.2347417289433,527.0521371729951,214.7286141889606Z" style="fill: rgb(61, 120, 168);"/><path class="link" d="M525.3452251323564,213.81510274553597L518.710312259714,217.19259186523624Q543.5501949661683,275.6876444038331,590.2582026104922,338.0227447730818L596.4592199268013,333.9024431064458Q550.5532281201719,271.54072299132224,525.3452251323564,213.81510274553597Z" style="fill: rgb(93, 148, 196);"/><path class="link" d="M508.1133332546889,449.9217333970031L509.06166344461235,444.7872090226299Q376.98935571820397,416.32840229314945,282.3424045680524,347.6501770976626L279.1351593228119,351.77040144070935Q374.32061165931356,422.55580771705144,508.1133332546889,449.9217333970031Z" style="fill: rgb(118, 171, 219);"/><path class="link" d="M509.29017388916776,445.4239355290708L507.88482281013347,449.2850068905622Q684.4113141870491,517.433555629381,855.2813509706948,496.32029568061984L854.8636316920727,492.23270539805236Q685.1963698522271,511.63649163777023,509.29017388916776,445.4239355290708Z" style="fill: rgb(131, 183, 231);"/><path class="link" d="M506.3114761762352,446.7257150270311L510.86352052306603,447.9832273926019Q571.0741934422038,244.99170150752454,541.9298794932258,52.002208360932144L537.2469229078877,52.6124236548372Q564.6303564833673,244.4860282963205,506.3114761762352,446.7257150270311Z" style="fill: rgb(124, 177, 225);"/><path class="link" d="M511.84674747237085,448.43953383067924L505.3282492269304,446.26940858895375Q463.8159354741665,556.1475446359608,398.52140472129423,632.8422247184596L403.54273139301944,637.5312055668323Q470.9989959106332,560.260667813776,511.84674747237085,448.43953383067924Z" style="fill: rgb(99, 154, 202);"/><path class="link" d="M506.92482466696293,449.3672265103774L510.2501720323383,445.3417159092556Q397.0116858833491,346.50362564132644,343.5789795781449,222.45898931679068L338.723992549133,224.3803876743105Q391.49525435597764,350.6282608846618,506.92482466696293,449.3672265103774Z" style="fill: rgb(118, 171, 219);"/><path class="link" d="M511.13387199908163,444.63907867230074L506.0411247002196,450.06986374733225Q612.6829458055515,557.0889458868379,745.927334979018,586.7047272782509L747.810893328131,579.501831365721Q617.1828026941834,549.1902896465298,511.13387199908163,444.63907867230074Z" style="fill: rgb(93, 148, 196);"/><path class="link" d="M506.3354729086349,445.64667066359755L510.8395237906663,449.06227175603544Q622.370501832182,309.2325861456849,646.3204393749645,146.49510493152513L640.7516602673559,145.5247934241981Q615.6224624705069,306.2106691352465,506.3354729086349,445.64667066359755Z" style="fill: rgb(113, 167, 215);"/><path class="link" d="M509.1064792526742,450.23319946913676L508.068517446627,444.4757429504962Q431.6339868213241,454.4005749342337,369.1487818391254,455.4331250839947L368.8917748964702,461.2777480578294Q432.16457862271363,461.1320953267064,509.1064792526742,450.23319946913676Z" style="fill: rgb(111, 165, 213);"/><path class="link" d="M506.0970760002687,448.6908835018682L511.0779206990325,446.0180589177648Q425.23353848653375,276.7319806775093,410.9669555274348,100.33593785866773L405.3231204300874,100.65205581851905Q418.1315294371027,278.7885518789248,506.0970760002687,448.6908835018682Z" style="fill: rgb(113, 167, 215);"/><path class="link" d="M513.2562263652399,446.78717947004947L503.9187703340614,447.9217629495835Q507.5596784199894,523.5483575470789,533.1310467051479,585.7332429969695L542.0937093431554,582.8791155920542Q517.5874931047806,521.4231112197804,513.2562263652399,446.78717947004947Z" style="fill: rgb(70, 128, 176);"/><path class="link" d="M507.6615876041538,442.54468475125236L509.51340909514744,452.1642576683806Q703.1492989252737,421.39579485792035,852.5834181192289,307.78675805765914L846.922513351505,299.79178569040147Q698.6743793053165,410.76168540298625,507.6615876041538,442.54468475125236Z" style="fill: rgb(66, 123, 171);"/><path class="link" d="M505.3845489563695,449.920685108145L511.79044774293175,444.788257311488Q469.860067226251,384.61363888711566,434.28952771174187,329.10910757647736L427.0687850826992,333.01272515978445Q462.3502282255508,389.644692462447,505.3845489563695,449.920685108145Z" style="fill: rgb(84, 140, 188);"/><path class="link" d="M510.5484945325293,442.66408114631355L506.62650216677196,452.04486127331944Q572.5068413311801,485.9381765205492,640.5440324841305,495.66116114647434L642.8342672714795,485.75480538226395Q575.9067813666617,475.4998610906516,510.5484945325293,442.66408114631355Z" style="fill: rgb(61, 120, 168);"/><path class="link" d="M504.0423688959927,446.14590203469794L513.1326278033085,448.56304038493505Q550.5448049761526,330.86166325986215,526.6758334844274,214.7866758304482L517.379703907643,216.22101878032402Q539.730130543524,330.2347417289433,504.0423688959927,446.14590203469794Z" style="fill: rgb(70, 128, 176);"/><path class="link" d="M503.0092334338546,442.69575323436163L514.1657632654467,452.01318918527136Q562.5767105369362,406.3195010542516,599.3122204660373,340.13109737411696L587.4052020712562,331.7940905054106Q550.5205725192438,397.14456417442074,503.0092334338546,442.69575323436163Z" style="fill: rgb(11, 74, 122);"/><path class="link" d="M593.9600264912737,338.0970722424432L592.7573960460198,333.8281156370844Q424.673421450017,377.23712182315376,281.24337378453674,347.5508993790825L280.23419010632756,351.86967915928943Q424.94476325758717,383.40738197748544,593.9600264912737,338.0970722424432Z" style="fill: rgb(127, 180, 228);"/><path class="link" d="M594.4879008327359,334.8166846183519L592.2295217045576,337.10850326117566Q712.6329838603423,460.26046861626963,854.648100149095,495.8282960699851L855.4968825136725,492.7247050086871Q715.1964881675005,456.0226576946402,594.4879008327359,334.8166846183519Z" style="fill: rgb(141, 192, 240);"/><path class="link" d="M590.1433598102307,337.3704565881238L596.5740627270628,334.5547312914038Q537.0896579248008,186.33109425649465,543.0869025197405,52.59201015509391L536.089899881373,52.022621860675436Q528.5503524817977,187.94982352810956,590.1433598102307,337.3704565881238Z" style="fill: rgb(97, 152, 200);"/><path class="link" d="M595.4303902217744,336.7536210800946L591.2870323155191,335.171566799433Q518.5792269931945,514.8615915091146,399.50211316463873,633.58146885362L402.56202294967494,636.791961431672Q523.7747837808545,518.2010415259392,595.4303902217744,336.7536210800946Z" style="fill: rgb(127, 180, 228);"/><path class="link" d="M592.0576383564012,334.6320570388075L594.6597841808923,337.2931308407201Q722.8651715638445,216.76173637705512,763.4059601920115,71.39839139401741L759.8443391670772,70.3179598386244Q718.2528194190417,213.83419532356749,592.0576383564012,334.6320570388075Z" style="fill: rgb(135, 187, 235);"/><path class="link" d="M592.6260933213198,339.5420024643599L594.0913292159737,332.3831854151677Q445.97640504910294,296.90178644240086,343.44555938257434,220.57607775389735L338.8574127447036,226.26329923720382Q442.3392601884607,305.0525819932224,592.6260933213198,339.5420024643599Z" style="fill: rgb(94, 149, 197);"/><path class="link" d="M595.933574946552,335.0801141259568L590.7838475907415,336.8450737535708Q639.7903125909927,492.833738658533,745.0147958729964,585.0958147158714L748.7234324341526,581.1107439281005Q645.8359419003108,489.07852130315905,595.933574946552,335.0801141259568Z" style="fill: rgb(116, 169, 217);"/><path class="link" d="M591.3278852655052,335.0719069203592L595.3895372717883,336.8532809591684Q643.7081993378317,235.1313597321704,645.7495420407076,146.14422432662292L641.3225576016127,145.8756740291003Q638.2177363882108,233.6810149971525,591.3278852655052,335.0719069203592Z" style="fill: rgb(127, 180, 228);"/><path class="link" d="M595.4804552673402,338.4610944507575L591.2369672699533,333.46409342877007Q480.74417429558105,421.20824165172326,368.1956283762498,455.18301560406866L369.84492835934583,461.52785753775544Q484.61697081999506,428.3068356916478,595.4804552673402,338.4610944507575Z" style="fill: rgb(103, 157, 205);"/><path class="link" d="M595.4239344349817,332.3476160296581L591.2934881023118,339.57757184986946Q673.9549448588526,392.7422410127811,748.9076651519608,405.9698659531797L750.9021067813655,397.885618885198Q677.6008835211753,384.08982736819974,595.4239344349817,332.3476160296581Z" style="fill: rgb(82, 139, 187);"/><path class="link" d="M590.6141726783806,339.3883253033471L596.1032498589129,332.5368625761805Q472.6199811746775,226.15930561132032,412.1839831704439,98.77497118797596L404.10609278707824,102.21302248921081Q464.3862300931301,232.63576702291454,590.6141726783806,339.3883253033471Z" style="fill: rgb(77, 134, 182);"/><path class="link" d="M599.1121910294312,336.0828757207921L587.6052315078623,335.84231215873547Q577.7588965732541,472.08062870456,532.4306619371356,581.8028184619185L542.7940941111677,586.8095401271052Q590.4534655267751,474.930211754057,599.1121910294312,336.0828757207921Z" style="fill: rgb(46, 106, 154);"/><path class="link" d="M593.7038228476712,331.5322320871412L593.0135996896223,340.3929557923864Q735.2829871372189,357.2414768885865,851.3043159658779,307.9534669474441L848.201615504856,299.6250768006165Q733.9874503352827,346.9171407262221,593.7038228476712,331.5322320871412Z" style="fill: rgb(76, 133, 181);"/><path class="link" d="M593.66483075343,340.34145432917273L593.0525917838635,331.58373355035485Q503.7149179397597,332.51683933971003,431.3464955846372,326.7223929029602L430.0118172098039,335.3994398333016Q503.42165056269124,342.24995737177034,593.66483075343,340.34145432917273Z" style="fill: rgb(77, 134, 182);"/><path class="link" d="M597.1317727743008,335.16988315826177L589.5856497629927,336.7553047212658Q603.3706290446258,425.4806595515805,638.1646374853143,492.27073593313565L645.2136622702957,489.14523059560264Q611.6246212684434,422.9027535719918,597.1317727743008,335.16988315826177Z" style="fill: rgb(90, 145, 193);"/><path class="link" d="M590.0940712330394,338.1318028120406L596.6233513042541,333.793385067487Q557.8953841135713,267.19298634157974,525.5208410568922,213.72570581060236L518.5346963351782,217.28198880016984Q550.5532281201719,271.54072299132224,590.0940712330394,338.1318028120406Z" style="fill: rgb(88, 144, 192);"/><path class="link" d="M598.9870762887097,339.9034392694744L587.7303462485838,332.0217486100532Q539.0961529239952,388.4503763241084,503.31388406877034,442.95018385222215L513.8611126305309,451.75875856741084Q550.5205725192438,397.14456417442074,598.9870762887097,339.9034392694744Z" style="fill: rgb(20, 82, 130);"/></g><g class="nodes"><g id="id-1"><circle r="42.22399379882736" cx="593.3587112686467" cy="335.9625939397638" style="fill: rgb(188, 228, 182); stroke: rgb(56, 160, 85); stroke-width: 5;"/><circle r="0" fill="" cx="593.3587112686467" cy="335.9625939397638"/><circle r="0" cx="593.3587112686467" cy="335.9625939397638" style="fill: rgb(244, 128, 116);"/></g><g id="id-2"><circle r="32.944631221546835" cx="508.5874983496506" cy="447.3544712098165" style="fill: rgb(193, 230, 187); stroke: rgb(59, 162, 87); stroke-width: 4.9173;"/><circle r="0" fill="" cx="508.5874983496506" cy="447.3544712098165"/><circle r="0" cx="508.5874983496506" cy="447.3544712098165" style="fill: rgb(244, 128, 116);"/></g><g id="id-3"><circle r="27.73302447016611" cx="522.0277686960352" cy="215.5038473053861" style="fill: rgb(196, 231, 190); stroke: rgb(106, 186, 120); stroke-width: 3.72281;"/><circle r="0" fill="" cx="522.0277686960352" cy="215.5038473053861"/><circle r="0" cx="522.0277686960352" cy="215.5038473053861" style="fill: rgb(244, 128, 116);"/></g><g id="id-4"><circle r="27.476572378323972" cx="641.689149877805" cy="490.70798326436915" style="fill: rgb(196, 231, 190); stroke: rgb(94, 180, 111); stroke-width: 4.03166;"/><circle r="0" fill="" cx="641.689149877805" cy="490.70798326436915"/><circle r="0" cx="641.689149877805" cy="490.70798326436915" style="fill: rgb(244, 128, 116);"/></g><g id="id-5"><circle r="25.563567673944902" cx="430.67915639722054" cy="331.0609163681309" style="fill: rgb(197, 232, 191); stroke: rgb(108, 187, 121); stroke-width: 3.67586;"/><circle r="0" fill="" cx="430.67915639722054" cy="331.0609163681309"/><circle r="0" cx="430.67915639722054" cy="331.0609163681309" style="fill: rgb(244, 128, 116);"/></g><g id="id-6"><circle r="24.28789742050171" cx="849.752965735367" cy="303.7892718740303" style="fill: rgb(197, 232, 191); stroke: rgb(106, 186, 120); stroke-width: 3.7259;"/><circle r="0" fill="" cx="849.752965735367" cy="303.7892718740303"/><circle r="0" cx="849.752965735367" cy="303.7892718740303" style="fill: rgb(244, 128, 116);"/></g><g id="id-7"><circle r="24.28790057001907" cx="537.6123780241517" cy="584.3061792945118" style="fill: rgb(197, 232, 191); stroke: rgb(101, 184, 117); stroke-width: 3.84218;"/><circle r="0" fill="" cx="537.6123780241517" cy="584.3061792945118"/><circle r="0" cx="537.6123780241517" cy="584.3061792945118" style="fill: rgb(244, 128, 116);"/></g><g id="id-8"><circle r="19.906872421814953" cx="408.1450379787611" cy="100.49399683859339" style="fill: rgb(200, 233, 194); stroke: rgb(129, 199, 136); stroke-width: 3.13456;"/><circle r="0" fill="" cx="408.1450379787611" cy="100.49399683859339"/><circle r="0" cx="408.1450379787611" cy="100.49399683859339" style="fill: rgb(244, 128, 116);"/></g><g id="id-9"><circle r="19.460934662816584" cx="749.9048859666632" cy="401.92774241918886" style="fill: rgb(200, 233, 194); stroke: rgb(133, 201, 139); stroke-width: 3.03142;"/><circle r="0" fill="" cx="749.9048859666632" cy="401.92774241918886"/><circle r="0" cx="749.9048859666632" cy="401.92774241918886" style="fill: rgb(244, 128, 116);"/></g><g id="id-10"><circle r="18.406263130018488" cx="369.0202783677978" cy="458.35543657091205" style="fill: rgb(201, 233, 195); stroke: rgb(134, 201, 139); stroke-width: 3.01058;"/><circle r="0" fill="" cx="369.0202783677978" cy="458.35543657091205"/><circle r="0" cx="369.0202783677978" cy="458.35543657091205" style="fill: rgb(244, 128, 116);"/></g><g id="id-11"><circle r="17.99945202540479" cx="643.5360498211602" cy="146.0099491778616" style="fill: rgb(201, 233, 195); stroke: rgb(136, 202, 141); stroke-width: 2.95092;"/><circle r="0" fill="" cx="643.5360498211602" cy="146.0099491778616"/><circle r="0" cx="643.5360498211602" cy="146.0099491778616" style="fill: rgb(244, 128, 116);"/></g><g id="id-12"><circle r="17.64820658929593" cx="746.8691141535745" cy="583.103279321986" style="fill: rgb(201, 233, 195); stroke: rgb(139, 204, 143); stroke-width: 2.88125;"/><circle r="0" fill="" cx="746.8691141535745" cy="583.103279321986"/><circle r="0" cx="746.8691141535745" cy="583.103279321986" style="fill: rgb(244, 128, 116);"/></g><g id="id-13"><circle r="17.387099083216683" cx="341.15148606363897" cy="223.4196884955506" style="fill: rgb(201, 233, 195); stroke: rgb(137, 203, 142); stroke-width: 2.91093;"/><circle r="0" fill="" cx="341.15148606363897" cy="223.4196884955506"/><circle r="0" cx="341.15148606363897" cy="223.4196884955506" style="fill: rgb(244, 128, 116);"/></g><g id="id-14"><circle r="16.139063753206617" cx="761.6251496795444" cy="70.8581756163209" style="fill: rgb(202, 234, 196); stroke: rgb(163, 217, 160); stroke-width: 2.25265;"/><circle r="0" fill="" cx="761.6251496795444" cy="70.8581756163209"/><circle r="0" cx="761.6251496795444" cy="70.8581756163209" style="fill: rgb(244, 128, 116);"/></g><g id="id-15"><circle r="16.074782005345156" cx="401.03206805715683" cy="635.186715142646" style="fill: rgb(202, 234, 196); stroke: rgb(149, 209, 150); stroke-width: 2.61885;"/><circle r="0" fill="" cx="401.03206805715683" cy="635.186715142646"/><circle r="0" cx="401.03206805715683" cy="635.186715142646" style="fill: rgb(244, 128, 116);"/></g><g id="id-16"><circle r="15.944122181244857" cx="539.5884012005567" cy="52.30731600788467" style="fill: rgb(202, 234, 196); stroke: rgb(144, 206, 146); stroke-width: 2.75089;"/><circle r="0" fill="" cx="539.5884012005567" cy="52.30731600788467"/><circle r="0" cx="539.5884012005567" cy="52.30731600788467" style="fill: rgb(244, 128, 116);"/></g><g id="id-17"><circle r="15.31658626605906" cx="855.0724913313837" cy="494.2765005393361" style="fill: rgb(202, 234, 196); stroke: rgb(150, 210, 151); stroke-width: 2.58346;"/><circle r="0" fill="" cx="855.0724913313837" cy="494.2765005393361"/><circle r="0" cx="855.0724913313837" cy="494.2765005393361" style="fill: rgb(244, 128, 116);"/></g><g id="id-18"><circle r="14.47457105353788" cx="280.73878194543215" cy="349.710289269186" style="fill: rgb(203, 234, 197); stroke: rgb(152, 211, 152); stroke-width: 2.53594;"/><circle r="0" fill="" cx="280.73878194543215" cy="349.710289269186"/><circle r="0" cx="280.73878194543215" cy="349.710289269186" style="fill: rgb(244, 128, 116);"/></g><g id="id-19"><circle r="14.430485598264633" cx="714.8623137107919" cy="266.436021270563" style="fill: rgb(203, 234, 197); stroke: rgb(148, 209, 150); stroke-width: 2.63581;"/><circle r="0" fill="" cx="714.8623137107919" cy="266.436021270563"/><circle r="0" cx="714.8623137107919" cy="266.436021270563" style="fill: rgb(244, 128, 116);"/></g><g id="id-20"><circle r="14.340971744088268" cx="504.7160956346509" cy="729.2563936019124" style="fill: rgb(203, 234, 197); stroke: rgb(155, 212, 154); stroke-width: 2.46127;"/><circle r="0" fill="" cx="504.7160956346509" cy="729.2563936019124"/><circle r="0" cx="504.7160956346509" cy="729.2563936019124" style="fill: rgb(244, 128, 116);"/></g></g></g></g><g id="labelsContainer"><g class="network labels"><text class="label" text-anchor="start" x="593.3587112686467" y="335.9625939397638" dx="46.446393178710096" visibility="visible" style="fill: black; font-size: 13px; paint-order: stroke; stroke: white; stroke-width: 2px; stroke-linecap: square; stroke-linejoin: round;">2, 97, 5, 38</text><text class="label" text-anchor="start" x="508.5874983496506" y="447.3544712098165" dx="36.239094343701524" visibility="visible" style="fill: black; font-size: 13px; paint-order: stroke; stroke: white; stroke-width: 2px; stroke-linecap: square; stroke-linejoin: round;">15, 58, 60, 82</text><text class="label" text-anchor="start" x="522.0277686960352" y="215.5038473053861" dx="30.506326917182726" visibility="visible" style="fill: black; font-size: 13px; paint-order: stroke; stroke: white; stroke-width: 2px; stroke-linecap: square; stroke-linejoin: round;">12, 13, 25, 27</text><text class="label" text-anchor="start" x="641.689149877805" y="490.70798326436915" dx="30.22422961615637" visibility="visible" style="fill: black; font-size: 13px; paint-order: stroke; stroke: white; stroke-width: 2px; stroke-linecap: square; stroke-linejoin: round;">7, 9, 89, 344</text><text class="label" text-anchor="start" x="430.67915639722054" y="331.0609163681309" dx="28.119924441339396" visibility="visible" style="fill: black; font-size: 13px; paint-order: stroke; stroke: white; stroke-width: 2px; stroke-linecap: square; stroke-linejoin: round;">47, 49, 134, 133</text><text class="label" text-anchor="start" x="849.752965735367" y="303.7892718740303" dx="26.716687162551885" visibility="visible" style="fill: black; font-size: 13px; paint-order: stroke; stroke: white; stroke-width: 2px; stroke-linecap: square; stroke-linejoin: round;">56, 55, 371, 142</text><text class="label" text-anchor="start" x="537.6123780241517" y="584.3061792945118" dx="26.716690627020977" visibility="visible" style="fill: black; font-size: 13px; paint-order: stroke; stroke: white; stroke-width: 2px; stroke-linecap: square; stroke-linejoin: round;">51, 52, 125, 64</text><text class="label" text-anchor="start" x="408.1450379787611" y="100.49399683859339" dx="21.89755966399645" visibility="visible" style="fill: black; font-size: 13px; paint-order: stroke; stroke: white; stroke-width: 2px; stroke-linecap: square; stroke-linejoin: round;">86, 87, 120, 226</text><text class="label" text-anchor="start" x="749.9048859666632" y="401.92774241918886" dx="21.407028129098244" visibility="visible" style="fill: black; font-size: 13px; paint-order: stroke; stroke: white; stroke-width: 2px; stroke-linecap: square; stroke-linejoin: round;">164, 267, 250, 301</text><text class="label" text-anchor="start" x="369.0202783677978" y="458.35543657091205" dx="20.246889443020336" visibility="visible" style="fill: black; font-size: 13px; paint-order: stroke; stroke: white; stroke-width: 2px; stroke-linecap: square; stroke-linejoin: round;">235, 273, 245, 279</text><text class="label" text-anchor="start" x="643.5360498211602" y="146.0099491778616" dx="19.79939722794527" visibility="visible" style="fill: black; font-size: 13px; paint-order: stroke; stroke: white; stroke-width: 2px; stroke-linecap: square; stroke-linejoin: round;">114, 139, 268, 396</text><text class="label" text-anchor="start" x="746.8691141535745" y="583.103279321986" dx="19.413027248225525" visibility="visible" style="fill: black; font-size: 13px; paint-order: stroke; stroke: white; stroke-width: 2px; stroke-linecap: square; stroke-linejoin: round;">66, 259, 439, 67</text><text class="label" text-anchor="start" x="341.15148606363897" y="223.4196884955506" dx="19.125808991538353" visibility="visible" style="fill: black; font-size: 13px; paint-order: stroke; stroke: white; stroke-width: 2px; stroke-linecap: square; stroke-linejoin: round;">144, 299, 182, 352</text><text class="label" text-anchor="start" x="761.6251496795444" y="70.8581756163209" dx="17.75297012852728" visibility="visible" style="fill: black; font-size: 13px; paint-order: stroke; stroke: white; stroke-width: 2px; stroke-linecap: square; stroke-linejoin: round;">214, 220, 217, 216</text><text class="label" text-anchor="start" x="401.03206805715683" y="635.186715142646" dx="17.682260205879672" visibility="visible" style="fill: black; font-size: 13px; paint-order: stroke; stroke: white; stroke-width: 2px; stroke-linecap: square; stroke-linejoin: round;">151, 387, 389, 386</text><text class="label" text-anchor="start" x="539.5884012005567" y="52.30731600788467" dx="17.538534399369343" visibility="visible" style="fill: black; font-size: 13px; paint-order: stroke; stroke: white; stroke-width: 2px; stroke-linecap: square; stroke-linejoin: round;">104, 103, 341, 85</text><text class="label" text-anchor="start" x="855.0724913313837" y="494.2765005393361" dx="16.84824489266497" visibility="visible" style="fill: black; font-size: 13px; paint-order: stroke; stroke: white; stroke-width: 2px; stroke-linecap: square; stroke-linejoin: round;">180, 179, 174, 175</text><text class="label" text-anchor="start" x="280.73878194543215" y="349.710289269186" dx="15.92202815889167" visibility="visible" style="fill: black; font-size: 13px; paint-order: stroke; stroke: white; stroke-width: 2px; stroke-linecap: square; stroke-linejoin: round;">118, 325, 115, 324</text><text class="label" text-anchor="start" x="714.8623137107919" y="266.436021270563" dx="15.873534158091099" visibility="visible" style="fill: black; font-size: 13px; paint-order: stroke; stroke: white; stroke-width: 2px; stroke-linecap: square; stroke-linejoin: round;">62, 61, 300</text><text class="label" text-anchor="start" x="504.7160956346509" y="729.2563936019124" dx="15.775068918497096" visibility="visible" style="fill: black; font-size: 13px; paint-order: stroke; stroke: white; stroke-width: 2px; stroke-linecap: square; stroke-linejoin: round;">127, 126, 355, 354</text></g></g></svg>